<?xml version="1.0" standalone="no"?>
<!DOCTYPE svg PUBLIC "-//W3C//DTD SVG 20010904//EN"
 "http://www.w3.org/TR/2001/REC-SVG-20010904/DTD/svg10.dtd">
<svg version="1.0" xmlns="http://www.w3.org/2000/svg"
 width="1270.000000pt" height="1280.000000pt" viewBox="0 0 1270.000000 1280.000000"
 preserveAspectRatio="xMidYMid meet">
<metadata>
Created by potrace 1.15, written by Peter Selinger 2001-2017
</metadata>
<g transform="translate(0.000000,1280.000000) scale(0.100000,-0.100000)"
fill="#607d8b" stroke="none">
<path d="M5570 12794 c-721 -39 -1150 -119 -1360 -255 -76 -49 -148 -122 -183
-187 -49 -91 -57 -145 -57 -404 0 -131 -3 -238 -7 -238 -29 0 -467 -44 -611
-60 -800 -94 -1270 -215 -1552 -402 -148 -98 -281 -253 -338 -394 l-27 -69 0
-4210 0 -4210 23 -67 c64 -186 253 -373 502 -498 133 -67 397 -147 659 -200
362 -73 969 -147 1539 -189 139 -10 257 -22 261 -27 4 -5 18 -38 31 -74 103
-294 339 -539 635 -660 203 -83 270 -89 970 -92 314 -1 518 -5 455 -8 -63 -3
-97 -7 -75 -8 22 -1 63 -9 90 -18 28 -8 109 -24 180 -35 334 -53 525 -72 835
-84 91 -4 171 -9 179 -11 27 -9 846 -4 1026 6 218 12 325 19 385 25 25 3 79 7
120 10 41 3 85 8 97 10 12 3 46 8 75 11 86 9 279 43 338 61 30 8 78 19 105 23
44 7 37 8 -55 11 -58 2 257 6 700 10 693 5 815 8 880 22 227 50 421 153 574
304 194 192 302 410 335 683 16 121 15 5801 0 5925 -62 506 -452 904 -959 981
-70 10 -196 14 -472 14 l-377 0 -3 1133 c-3 1066 -4 1135 -22 1187 -140 423
-581 651 -1526 790 -254 37 -906 110 -986 110 -10 0 -14 62 -16 273 l-3 272
-34 70 c-65 135 -207 244 -401 309 -184 61 -478 110 -864 142 -169 14 -907 27
-1066 18z"/>
</g>
</svg>
