<?xml version="1.0" standalone="no"?>
<!DOCTYPE svg PUBLIC "-//W3C//DTD SVG 20010904//EN"
 "http://www.w3.org/TR/2001/REC-SVG-20010904/DTD/svg10.dtd">
<svg version="1.0" xmlns="http://www.w3.org/2000/svg"
 width="640.000000pt" height="1280.000000pt" viewBox="0 0 640.000000 1280.000000"
 preserveAspectRatio="xMidYMid meet">
<metadata>
Created by potrace 1.15, written by Peter Selinger 2001-2017
</metadata>
<g transform="translate(0.000000,1280.000000) scale(0.100000,-0.100000)"
fill="#9e9e9e" stroke="none">
<path d="M2050 12794 c-183 -22 -288 -43 -415 -86 -71 -23 -115 -65 -115 -108
0 -16 -13 -51 -30 -77 -34 -53 -38 -98 -15 -144 15 -27 14 -31 -6 -58 -27 -36
-20 -86 17 -131 24 -28 24 -30 7 -37 -23 -8 -29 -17 -53 -82 -19 -49 -19 -56
-5 -77 9 -15 15 -47 15 -88 0 -61 2 -67 30 -88 16 -12 30 -29 30 -38 0 -47
117 -97 292 -125 139 -23 511 -31 664 -16 222 23 387 71 415 122 11 21 8 26
-22 52 -21 17 -26 25 -14 21 11 -4 27 -13 35 -19 19 -16 55 -4 69 24 6 11 15
52 21 91 11 81 3 131 -30 173 -17 22 -18 26 -5 37 25 21 18 68 -15 101 -32 33
-31 43 11 98 10 13 16 27 13 32 -3 5 0 26 7 47 14 47 -3 90 -57 146 -20 21
-34 45 -34 60 0 29 -41 81 -79 100 -27 14 -143 38 -266 56 -75 11 -407 21
-465 14z"/>
<path d="M1414 10528 c-6 -9 -85 -480 -119 -703 -54 -356 -86 -427 -285 -625
-151 -151 -228 -254 -313 -425 -123 -246 -190 -492 -229 -837 -14 -126 -15
-894 -1 -1171 6 -123 5 -157 -4 -157 -9 0 -13 -17 -13 -52 0 -170 50 -1098 90
-1663 30 -430 70 -1031 70 -1060 0 -18 6 -29 19 -32 18 -4 19 -21 26 -246 8
-270 -6 -619 -30 -767 -18 -111 -39 -182 -90 -304 -101 -243 -130 -672 -75
-1112 21 -165 31 -215 71 -348 41 -137 136 -219 404 -347 303 -146 657 -230
1083 -260 340 -24 828 31 1137 128 225 71 449 183 615 309 53 40 57 45 82 130
75 248 102 459 102 809 0 360 -27 537 -113 729 -37 81 -65 187 -83 311 -18
125 -19 952 -1 963 9 6 19 95 33 288 11 153 34 459 50 679 65 875 101 1508
104 1845 2 118 6 406 11 640 9 459 0 661 -36 883 -77 470 -257 841 -529 1087
-155 140 -203 238 -261 538 -85 440 -140 718 -149 747 l-10 30 -776 0 c-427 0
-778 -3 -780 -7z"/>
</g>
</svg>
