<?xml version="1.0" standalone="no"?>
<!DOCTYPE svg PUBLIC "-//W3C//DTD SVG 20010904//EN"
 "http://www.w3.org/TR/2001/REC-SVG-20010904/DTD/svg10.dtd">
<svg version="1.0" xmlns="http://www.w3.org/2000/svg"
 width="887.000000pt" height="1280.000000pt" viewBox="0 0 887.000000 1280.000000"
 preserveAspectRatio="xMidYMid meet">
<g transform="translate(0.000000,1280.000000) scale(0.100000,-0.100000)"
fill="#000000" stroke="none">
<path d="M4045 12789 c-11 -5 -130 -36 -265 -69 -262 -63 -302 -76 -337 -110
-34 -31 -48 -64 -87 -199 -91 -314 -133 -706 -90 -850 21 -73 11 -83 -70 -75
-122 13 -273 -41 -344 -121 -66 -75 -138 -267 -511 -1360 -195 -569 -480
-1439 -527 -1604 -33 -117 -29 -169 19 -274 59 -128 144 -262 191 -304 74 -65
292 -141 481 -168 55 -8 106 -15 113 -15 21 0 13 -30 -18 -69 -39 -50 -102
-168 -139 -262 -70 -180 -101 -359 -101 -596 0 -96 4 -123 30 -202 38 -119 66
-265 81 -431 22 -254 -8 -1035 -51 -1295 -35 -210 -88 -391 -220 -760 -147
-411 -140 -383 -190 -765 -32 -248 -71 -495 -95 -596 -24 -105 -53 -167 -111
-239 -85 -105 -209 -297 -267 -413 -56 -113 -70 -188 -47 -257 25 -74 276
-295 405 -356 34 -16 77 -46 97 -66 37 -38 128 -170 128 -185 0 -12 -238 -128
-262 -128 -10 0 -45 11 -78 25 -84 35 -164 44 -505 54 -339 11 -326 8 -580
107 -126 48 -160 58 -215 58 -52 1 -71 -4 -96 -21 -45 -32 -155 -191 -223
-323 -71 -139 -107 -244 -127 -370 -8 -52 -19 -123 -24 -156 -22 -133 -9 -154
123 -202 205 -74 750 -201 805 -187 14 3 92 17 173 31 82 13 343 62 581 110
613 121 663 131 753 144 190 27 222 34 289 56 133 46 205 26 333 -91 86 -78
122 -95 205 -95 82 0 157 13 358 60 258 61 300 64 485 40 178 -23 396 -27 435
-7 34 17 62 61 100 159 18 46 92 205 166 353 131 265 242 458 276 479 38 23
36 -9 -12 -179 -17 -60 -24 -117 -27 -228 -11 -299 31 -363 322 -487 140 -59
299 -142 399 -207 146 -95 206 -109 317 -77 30 9 176 67 324 129 454 190 522
212 860 281 300 61 321 67 341 106 22 42 14 120 -30 279 -85 307 -153 487
-228 594 -163 236 -208 316 -195 350 12 29 26 15 67 -64 23 -43 86 -134 141
-202 277 -342 337 -445 514 -879 142 -350 186 -397 341 -371 149 26 495 137
573 184 63 38 84 101 61 186 -5 20 -21 97 -35 171 -37 192 -127 555 -170 690
-53 162 -86 231 -142 291 -101 109 -786 599 -837 599 -41 0 -168 -93 -369
-270 -113 -99 -141 -119 -168 -120 -33 0 -28 31 17 113 138 253 384 787 384
836 0 14 -22 46 -57 83 -72 75 -265 238 -352 296 -63 42 -69 44 -121 39 -30
-3 -118 -29 -195 -57 -109 -41 -152 -52 -195 -52 -65 1 -214 41 -279 75 -46
23 -46 24 -45 73 1 27 54 270 117 539 63 270 156 672 207 895 181 799 519
2130 625 2459 54 170 208 682 265 881 54 191 75 233 148 304 106 102 125 181
116 486 -7 225 -10 206 116 615 95 309 120 406 120 476 0 51 -4 63 -30 93 -37
41 -87 60 -142 53 -84 -11 -115 -71 -228 -451 -64 -217 -136 -404 -179 -471
-34 -52 -95 -82 -195 -94 -92 -11 -114 -27 -176 -132 -95 -160 -167 -167 -310
-34 l-80 75 -75 0 c-54 0 -117 -10 -218 -36 -174 -44 -251 -44 -337 -2 -85 42
-319 237 -355 294 -54 87 -144 204 -238 306 -133 145 -205 237 -223 285 -15
40 -15 44 0 68 24 36 48 43 188 54 206 17 276 57 297 168 35 183 37 187 130
218 l48 16 5 112 c7 135 31 207 92 276 36 41 45 60 60 131 20 89 36 113 107
155 42 25 48 59 20 112 -56 110 -223 240 -372 292 -128 43 -200 98 -235 176
-12 27 -38 77 -58 109 -40 67 -43 88 -25 228 13 102 7 136 -40 210 -25 39 -44
55 -110 87 -166 84 -482 190 -1036 347 -110 31 -204 60 -209 65 -12 11 -15 11
-41 -2z m3105 -4379 c59 -32 40 -125 -234 -1170 -215 -815 -267 -1003 -341
-1230 -95 -290 -122 -380 -190 -635 -135 -503 -264 -1053 -371 -1578 -80 -397
-95 -437 -126 -336 -15 50 -45 75 -117 94 -149 40 -158 45 -201 91 -47 51 -88
134 -204 415 l-78 186 132 229 c193 333 245 420 430 709 273 427 394 645 455
820 60 172 34 387 -65 537 -28 43 -41 50 -183 113 -83 37 -352 165 -597 285
-477 233 -638 305 -765 340 -122 34 -155 49 -155 72 0 28 40 105 117 226 38
59 98 178 143 282 105 242 129 279 211 320 51 27 189 60 246 60 26 0 111 -13
188 -29 150 -31 276 -47 448 -57 121 -7 163 -23 297 -118 61 -43 78 -50 130
-54 75 -5 261 14 328 33 71 21 99 49 155 149 76 136 123 181 247 232 63 26 74
28 100 14z m-2701 -2511 c162 -24 300 -56 436 -99 102 -33 195 -75 206 -93 4
-5 -30 -84 -75 -176 -44 -91 -151 -329 -236 -529 l-155 -362 -118 -142 c-125
-150 -170 -217 -216 -320 -57 -128 -64 -229 -22 -319 48 -102 206 -259 313
-311 29 -15 79 -31 111 -37 34 -6 76 -23 101 -41 46 -31 260 -252 286 -295 13
-23 11 -30 -65 -142 -138 -204 -137 -203 -414 -298 -215 -73 -245 -86 -257
-112 -4 -10 -10 -176 -14 -370 -3 -214 -9 -356 -15 -361 -5 -6 -77 -31 -159
-57 -189 -59 -197 -67 -311 -280 -95 -176 -227 -382 -250 -391 -8 -3 -72 10
-142 30 -71 20 -164 41 -208 46 -122 16 -131 22 -176 111 -68 137 -116 167
-296 190 -51 6 -97 17 -102 23 -5 6 -30 92 -55 191 -25 99 -55 207 -66 240
-24 68 -22 93 16 275 72 338 217 797 343 1082 32 73 98 232 146 352 104 263
176 410 260 531 34 50 71 108 83 130 25 50 64 179 92 310 27 120 66 228 173
475 44 102 104 249 133 328 29 79 70 175 91 214 43 82 118 169 183 211 44 28
47 29 144 23 55 -4 161 -16 235 -27z"/>
</g>
</svg>
