<?xml version="1.0" standalone="no"?>
<!DOCTYPE svg PUBLIC "-//W3C//DTD SVG 20010904//EN"
 "http://www.w3.org/TR/2001/REC-SVG-20010904/DTD/svg10.dtd">
<svg version="1.0" xmlns="http://www.w3.org/2000/svg"
 width="1280.000000pt" height="640.000000pt" viewBox="0 0 1280.000000 640.000000"
 preserveAspectRatio="xMidYMid meet">
<metadata>
Created by potrace 1.15, written by Peter Selinger 2001-2017
</metadata>
<g transform="translate(0.000000,640.000000) scale(0.100000,-0.100000)"
fill="#ff5722" stroke="none">
<path d="M8020 5820 c-91 -4 -214 -13 -275 -19 -172 -18 -537 -61 -570 -67
-98 -18 -489 -120 -595 -154 -69 -22 -151 -47 -183 -56 l-59 -15 -51 35 c-75
50 -138 68 -452 125 -576 105 -840 121 -1285 76 -227 -23 -388 -54 -806 -155
-137 -33 -343 -83 -459 -110 -500 -120 -896 -249 -1085 -354 -295 -164 -390
-228 -510 -343 -158 -152 -285 -338 -359 -528 -53 -135 -109 -321 -122 -408
-6 -40 -16 -82 -23 -94 -6 -13 -57 -69 -112 -125 -118 -121 -127 -140 -150
-327 -20 -165 -44 -216 -128 -276 -71 -51 -258 -224 -331 -306 -70 -78 -103
-148 -117 -247 -11 -72 -10 -95 5 -169 26 -127 49 -164 171 -291 129 -133 133
-117 -47 -174 -144 -46 -153 -51 -172 -88 -23 -45 -19 -75 16 -104 37 -32 97
-34 253 -11 156 23 166 24 166 16 0 -14 -131 -59 -218 -75 -44 -8 -114 -15
-154 -15 -123 1 -169 -20 -252 -112 -108 -120 -137 -246 -102 -442 19 -103 39
-137 81 -137 39 0 149 48 191 84 81 68 632 375 720 400 21 6 22 3 25 -102 4
-101 7 -113 41 -183 99 -200 364 -367 693 -438 209 -46 755 -73 865 -43 25 7
137 19 250 27 113 9 329 29 480 45 396 43 664 60 931 60 370 1 1362 33 1534
49 55 6 321 10 590 10 317 1 601 6 805 17 267 14 352 15 560 5 316 -16 580
-37 750 -61 74 -10 203 -26 285 -35 83 -8 238 -26 345 -40 386 -48 1034 -89
1181 -75 253 25 555 137 799 297 181 119 258 209 307 361 27 82 28 83 56 78
48 -10 256 -113 320 -160 34 -24 94 -77 132 -116 86 -88 118 -107 151 -90 22
13 29 24 98 170 44 94 195 322 278 418 71 83 152 142 230 167 65 22 78 31 78
59 0 32 -38 63 -90 75 -74 17 -416 26 -482 12 -65 -14 -81 -29 -80 -72 1 -39
-12 -73 -44 -121 -37 -53 -66 -62 -197 -56 -172 8 -217 37 -203 132 12 78 32
91 180 116 148 24 205 45 371 137 180 99 354 231 433 326 120 146 152 310 85
444 -26 53 -40 67 -156 149 -70 50 -139 101 -152 114 -29 27 -32 59 -9 121 53
147 56 393 7 544 -28 88 -144 328 -189 390 -108 153 -276 307 -505 463 -79 54
-180 123 -224 154 -123 85 -646 404 -770 469 -289 151 -889 384 -1185 459
-388 98 -1132 207 -1355 198 -22 -1 -114 -5 -205 -8z"/>
</g>
</svg>
