<?xml version="1.0" encoding="iso-8859-1"?>
<!-- Generator: Adobe Illustrator 21.1.0, SVG Export Plug-In . SVG Version: 6.00 Build 0)  -->
<svg version="1.1" id="Layer_1" xmlns="http://www.w3.org/2000/svg" xmlns:xlink="http://www.w3.org/1999/xlink" x="0px" y="0px"
	 viewBox="0 0 24 24" enable-background="new 0 0 24 24" xml:space="preserve">
<g>
	<path opacity="0.1" fill="#010101" d="M15.5002441,5.6070557c-0.0829468-0.0325317-0.1659546-0.0765381-0.2423096-0.1519775
		c-0.2314453-0.2270508-0.2578125-0.5556641-0.2578125-0.7832031c0-0.0722656,0.0071411-0.1401367,0.0128174-0.2089233
		c0.0153809-0.0753174,0.024353-0.1473999,0.0280151-0.2167358c0.0917969-0.5141602,0.3468628-0.8912354,0.6929932-1.0205078
		C15.616394,3.4718018,15.5469971,3.7779541,15.5469971,4.125c0,0.2275391,0.0263672,0.5561523,0.2578125,0.7832031
		c0.076355,0.0754395,0.1593628,0.1194458,0.2423096,0.1519775L16.0478516,7.625h-0.5470581L15.5002441,5.6070557z"/>
	<path opacity="0.1" fill="#010101" d="M10.0002441,5.6070557C9.9172974,5.5745239,9.8342896,5.5305176,9.7579346,5.4550781
		C9.5264893,5.2280273,9.5001221,4.8994141,9.5001221,4.671875c0-0.0690918,0.007019-0.1337891,0.012207-0.199707
		C9.529541,4.3911743,9.5386353,4.3138428,9.5422363,4.2398071c0.0927734-0.5108643,0.3470459-0.885376,0.6917114-1.0140991
		C10.116394,3.4718018,10.0469971,3.7779541,10.0469971,4.125c0,0.2275391,0.0263672,0.5561523,0.2578125,0.7832031
		c0.076355,0.0754395,0.1593628,0.1194458,0.2423096,0.1519775L10.5478516,7.625h-0.5470581L10.0002441,5.6070557z"/>
	<path opacity="0.1" fill="#010101" d="M12.9992676,5.6070557c-0.0829468-0.0325317-0.1659546-0.0765381-0.2423096-0.1519775
		c-0.2314453-0.2270508-0.2578125-0.5556641-0.2578125-0.7832031c0-0.7278442,0.2971802-1.2830811,0.7338257-1.446167
		C13.1154175,3.4718018,13.0460205,3.7779541,13.0460205,4.125c0,0.2275391,0.0263672,0.5561523,0.2578125,0.7832031
		c0.076355,0.0754395,0.1593628,0.1194458,0.2423096,0.1519775L13.546875,7.625h-0.5470581L12.9992676,5.6070557z"/>
	<path opacity="0.1" fill="#010101" d="M7.5002441,5.6070557C7.4172974,5.5745239,7.3342896,5.5305176,7.2579346,5.4550781
		C7.0264893,5.2280273,7.0001221,4.8994141,7.0001221,4.671875c0-0.7278442,0.2971802-1.2830811,0.7338257-1.446167
		C7.616394,3.4718018,7.5469971,3.7779541,7.5469971,4.125c0,0.2275391,0.0263672,0.5561523,0.2578125,0.7832031
		c0.076355,0.0754395,0.1593628,0.1194458,0.2423096,0.1519775L8.0478516,7.625H7.5007935L7.5002441,5.6070557z"/>
	<path fill="#303C42" d="M19,7.2782593V2c0-1.1030273-0.8974609-2-2-2H7C5.8974609,0,5,0.8969727,5,2v5.2782593
		C4.4052124,7.6251831,4,8.2630005,4,9v13c0,1.1030273,0.8974609,2,2,2h12c1.1025391,0,2-0.8969727,2-2V9
		C20,8.2630005,19.5947876,7.6251831,19,7.2782593z"/>
	<path fill="#BDAAA4" d="M6,2c0-0.5512695,0.4482422-1,1-1h10c0.5517578,0,1,0.4487305,1,1v5h-1.5008545l0.0007324-2.5648193
		c0.0829468-0.0325317,0.1659546-0.0765381,0.2423096-0.1519775C16.9736328,4.0561523,17,3.7275391,17,3.5
		C17,2.6308594,16.5791016,2,15.9990234,2C15.4199219,2,15,2.6308594,15,3.5c0,0.2275391,0.0263672,0.5561523,0.2578125,0.7832031
		c0.076416,0.0754395,0.1591797,0.1187744,0.2420654,0.1511841L15.4991455,7h-1.5l0.0007324-2.5648193
		c0.0829468-0.0325317,0.1659546-0.0765381,0.2423096-0.1519775C14.4736328,4.0561523,14.5,3.7275391,14.5,3.5
		c0-0.8691406-0.4208984-1.5-1.0009766-1.5C12.9199219,2,12.5,2.6308594,12.5,3.5
		c0,0.2275391,0.0263672,0.5561523,0.2578125,0.7832031c0.0764771,0.0755005,0.1591797,0.1188354,0.2420654,0.1512451L12.9991455,7
		h-1.9990234l0.0007324-2.5648193c0.0829468-0.0325317,0.1659546-0.0765381,0.2423096-0.1519775
		C11.4746094,4.0561523,11.5009766,3.7275391,11.5009766,3.5c0-0.8691406-0.4208984-1.5-1.0009766-1.5
		C9.9208984,2,9.5009766,2.6308594,9.5009766,3.5c0,0.2275391,0.0263672,0.5561523,0.2578125,0.7832031
		c0.0762329,0.0752563,0.1590576,0.1185303,0.2420654,0.1509399L10.0001221,7H8.4991455l0.0007324-2.5648193
		c0.0829468-0.0325317,0.1659546-0.0765381,0.2423096-0.1519775C8.9736328,4.0561523,9,3.7275391,9,3.5
		C9,2.6308594,8.5791016,2,7.9990234,2C7.4199219,2,7,2.6308594,7,3.5c0,0.2275391,0.0263672,0.5561523,0.2578125,0.7832031
		c0.0762329,0.0752563,0.1590576,0.1185303,0.2420654,0.1509399L7.4991455,7H6V2z"/>
	<path opacity="0.1" fill="#010101" d="M6.546875,2.546875c0-0.5512695,0.4482422-1,1-1h10
		c0.133606,0,0.2603149,0.0285645,0.3768921,0.0762939C17.7744751,1.2585449,17.4180298,1,17,1H7C6.4482422,1,6,1.4487305,6,2v5
		h0.546875V2.546875z"/>
	<path fill="#A1887F" d="M19,22c0,0.5512695-0.4482422,1-1,1H6c-0.5517578,0-1-0.4487305-1-1V9c0-0.5512695,0.4482422-1,1-1h12
		c0.5517578,0,1,0.4487305,1,1V22z"/>
	<path opacity="0.2" fill="#FFFFFF" d="M6.5,22V9c0-0.5512695,0.3521729-1,0.7857056-1H6C5.4482422,8,5,8.4487305,5,9v13
		c0,0.5512695,0.4482422,1,1,1h1.2857056C6.8521729,23,6.5,22.5512695,6.5,22z"/>
	<path opacity="0.1" fill="#010101" d="M18,8h-1.2857056C17.1478271,8,17.5,8.4487305,17.5,9v13
		c0,0.5512695-0.3521729,1-0.7857056,1H18c0.5517578,0,1-0.4487305,1-1V9C19,8.4487305,18.5517578,8,18,8z"/>
	<path fill="#303C42" d="M14.6171875,12.6513672c-0.53125-0.6777344-0.9501953-1.2133789-0.9501953-2.1513672
		c0-0.1860352-0.1035156-0.3564453-0.2675781-0.4428711c-0.1640625-0.0854492-0.3632813-0.074707-0.5166016,0.03125
		c-1.0273438,0.7089844-1.8212891,1.6904297-2.1767578,2.6928711c-0.1914063,0.5366211-0.2890625,1.0556641-0.3349609,1.4995117
		c-0.171875-0.2431641-0.2070313-0.637207-0.2041016-0.7666016c0.0048828-0.171875-0.0791016-0.3344727-0.2226563-0.4301758
		c-0.1416016-0.0947266-0.3242188-0.1103516-0.4824219-0.0400391c-0.0566406,0.0253906-1.3916016,0.6503906-1.4570313,2.8598633
		C8,15.9775391,8,16.0512695,8,16.125C8,18.2617188,9.7939453,20,12,20s4-1.7382813,4-3.875
		c0-0.1054688-0.0068359-0.2036133-0.0224609-0.4008789C15.859375,14.2387695,15.1992188,13.3955078,14.6171875,12.6513672z"/>
	<path fill="#FFCB29" d="M12,19c-1.6542969,0-3-1.2895508-3-2.875l0.0039063-0.1757813
		c0.0195313-0.6748047,0.1796875-1.1357422,0.3564453-1.4428711c0.0800781,0.1894531,0.1923828,0.378418,0.3515625,0.5419922
		C9.9990234,15.34375,10.3867188,15.5,10.8330078,15.5c0.2763672,0,0.5-0.2236328,0.5-0.5
		c0-0.4555664,0.0546875-1.1518555,0.3144531-1.8837891c0.2080078-0.5849609,0.609375-1.1674805,1.140625-1.6689453
		c0.2021484,0.7480469,0.6269531,1.2910156,1.0410156,1.8208008c0.5439453,0.6943359,1.0576172,1.3500977,1.1513672,2.5283203
		c0,0.0019531,0.0078125,0.1020508,0.0078125,0.1040039C14.9941406,15.9736328,15,16.0463867,15,16.125
		C15,17.7104492,13.6542969,19,12,19z"/>
	<path fill="#F78F1E" d="M12,19c-0.9172001,0-1.6633053-0.7149715-1.6633053-1.5939999l0.0021658-0.0974598
		c0.010829-0.374136,0.0996256-0.6296959,0.1976261-0.7999783c0.0443983,0.1050396,0.1066637,0.2098083,0.1949186,0.300499
		c0.1591835,0.1637859,0.374135,0.2504158,0.6215734,0.2504158c0.1532278,0,0.2772179-0.1239891,0.2772179-0.277216
		c0-0.2525826,0.0303202-0.6386299,0.1743431-1.0444393c0.1153269-0.3243227,0.3378592-0.6472921,0.6324024-0.9253216
		c0.1120787,0.4147434,0.3476048,0.7157841,0.5771761,1.0095158c0.3015823,0.384964,0.58638,0.7485409,0.6383581,1.4017887
		c0,0.0010834,0.0043316,0.0565815,0.0043316,0.057663c0.0032482,0.0406094,0.0064974,0.080946,0.0064974,0.1245327
		C13.6633053,18.2850285,12.9172001,19,12,19z"/>
	<linearGradient id="SVGID_1_" gradientUnits="userSpaceOnUse" x1="2.160984" y1="7.6451454" x2="22.4818039" y2="17.1208992">
		<stop  offset="0" style="stop-color:#FFFFFF;stop-opacity:0.2"/>
		<stop  offset="1" style="stop-color:#FFFFFF;stop-opacity:0"/>
	</linearGradient>
	<path fill="url(#SVGID_1_)" d="M19,7.2782593V2c0-1.1030273-0.8974609-2-2-2H7C5.8974609,0,5,0.8969727,5,2v5.2782593
		C4.4052124,7.6251831,4,8.2630005,4,9v13c0,1.1030273,0.8974609,2,2,2h12c1.1025391,0,2-0.8969727,2-2V9
		C20,8.2630005,19.5947876,7.6251831,19,7.2782593z"/>
</g>
<g>
</g>
<g>
</g>
<g>
</g>
<g>
</g>
<g>
</g>
<g>
</g>
<g>
</g>
<g>
</g>
<g>
</g>
<g>
</g>
<g>
</g>
<g>
</g>
<g>
</g>
<g>
</g>
<g>
</g>
</svg>
