<?xml version="1.0" standalone="no"?>
<!DOCTYPE svg PUBLIC "-//W3C//DTD SVG 20010904//EN"
 "http://www.w3.org/TR/2001/REC-SVG-20010904/DTD/svg10.dtd">
<svg version="1.0" xmlns="http://www.w3.org/2000/svg"
 width="1280.000000pt" height="1070.000000pt" viewBox="0 0 1280.000000 1070.000000"
 preserveAspectRatio="xMidYMid meet">
<metadata>
Created by potrace 1.15, written by Peter Selinger 2001-2017
</metadata>
<g transform="translate(0.000000,1070.000000) scale(0.100000,-0.100000)"
fill="#3f51b5" stroke="none">
<path d="M5990 10689 c-1211 -68 -2323 -430 -3160 -1027 -278 -198 -431 -403
-536 -717 -134 -402 -147 -970 -35 -1509 12 -55 21 -105 21 -113 0 -11 -194
-13 -1140 -13 l-1140 0 0 -3655 0 -3655 6400 0 6400 0 0 3655 0 3655 -1140 0
c-946 0 -1140 2 -1140 13 0 8 9 58 21 113 113 540 99 1106 -36 1512 -104 311
-258 516 -535 714 -1030 735 -2488 1111 -3980 1027z m860 -1179 c508 -46 975
-153 1410 -324 238 -94 552 -264 782 -426 255 -178 392 -393 482 -756 45 -183
76 -426 76 -606 l0 -88 -3200 0 -3200 0 0 88 c0 323 76 697 189 933 111 231
227 346 569 562 130 82 445 239 602 300 357 139 763 242 1150 291 100 13 254
27 440 40 96 7 580 -3 700 -14z m310 -4420 l0 -760 763 -2 762 -3 0 -760 0
-760 -762 -3 -763 -2 0 -760 0 -760 -760 0 -760 0 0 760 0 760 -762 2 -763 3
0 760 0 760 763 3 762 2 0 760 0 760 760 0 760 0 0 -760z"/>
</g>
</svg>
