<?xml version="1.0" ?><svg data-name="Layer 1" id="Layer_1" viewBox="0 0 64 64" xmlns="http://www.w3.org/2000/svg"><defs><style>.cls-1{fill:#ff5939;}.cls-2{fill:#72d849;}.cls-3{fill:#ecf1f6;}.cls-4{opacity:0.15;}.cls-5{fill:#bf6830;}</style></defs><title/><path class="cls-1" d="M16.93,22.33l-6,21.82H12.8c4.69-6.26,4.19-20.59,4.15-21.75v-.06Z"/><path class="cls-1" d="M32,22.31H16.94v.08c.58,15.94,4.83,21.75,4.83,21.75H53.08l-6-21.84Z"/><path class="cls-2" d="M16.94,22.39v0Z"/><path class="cls-3" d="M21.77,44.14s-4.25-5.82-4.83-21.75c0,1.17.55,15.49-4.15,21.75Z"/><g class="cls-4"><polygon points="47.06 22.3 32 22.3 32 44.14 53.08 44.14 47.06 22.3"/></g><path class="cls-5" d="M60,45.14H9.49a1,1,0,0,1,0-2H60a1,1,0,0,1,0,2Z"/><path class="cls-5" d="M6.45,45.14H6.12a1,1,0,0,1,0-2h.33a1,1,0,1,1,0,2Z"/></svg>