<?xml version="1.0" standalone="no"?>
<!DOCTYPE svg PUBLIC "-//W3C//DTD SVG 20010904//EN"
 "http://www.w3.org/TR/2001/REC-SVG-20010904/DTD/svg10.dtd">
<svg version="1.0" xmlns="http://www.w3.org/2000/svg"
 width="1280.000000pt" height="853.000000pt" viewBox="0 0 1280.000000 853.000000"
 preserveAspectRatio="xMidYMid meet">
<metadata>
Created by potrace 1.15, written by Peter Selinger 2001-2017
</metadata>
<g transform="translate(0.000000,853.000000) scale(0.100000,-0.100000)"
fill="#8bc34a" stroke="none">
<path d="M9644 8317 c-2 -7 66 -167 152 -356 86 -189 152 -347 147 -351 -13
-12 -303 -96 -536 -155 -1259 -318 -2733 -446 -4672 -404 -352 8 -785 14 -963
14 -177 0 -322 1 -322 3 0 1 59 99 130 217 72 118 130 217 130 220 0 4 -11 5
-25 3 -21 -2 -45 -37 -143 -197 -64 -107 -121 -193 -126 -193 -5 1 -47 83 -93
184 -47 101 -88 186 -92 191 -4 4 -14 1 -23 -5 -15 -12 -7 -34 81 -223 86
-183 97 -213 86 -230 -80 -131 -2705 -4466 -2714 -4483 -7 -13 -14 -22 -16
-20 -2 2 13 70 33 151 l37 149 -32 28 c-56 50 -166 51 -224 2 l-31 -25 6 -166
c4 -91 8 -204 11 -251 3 -55 1 -76 -4 -60 -5 14 -9 44 -10 68 -1 50 -21 49
-21 -1 0 -61 -14 -62 -63 -5 l-47 53 40 -113 c22 -62 40 -115 40 -117 0 -3 79
-5 177 -5 l176 0 53 50 c60 57 56 58 -61 30 -44 -10 -81 -18 -82 -17 -1 2 18
45 43 96 24 52 43 96 40 98 -2 2 -27 -22 -56 -54 -29 -32 -51 -53 -49 -46 6
18 2713 4482 2716 4479 2 -2 -30 -101 -71 -222 -325 -957 -770 -1870 -1299
-2664 -217 -325 -348 -502 -674 -907 -187 -233 -233 -297 -233 -321 0 -20 398
-155 1925 -653 1659 -542 2338 -770 2392 -805 28 -18 93 -5 392 77 117 33 217
59 221 59 4 0 99 -197 211 -437 l203 -438 4 -103 4 -104 -41 44 -42 43 3 -58
c2 -31 0 -57 -3 -57 -4 0 -25 7 -48 15 -22 8 -41 11 -41 7 0 -4 25 -33 55 -65
l55 -57 160 0 c88 0 160 1 161 3 11 56 24 157 18 157 -3 0 -23 -20 -43 -45
-44 -53 -54 -56 -48 -15 5 34 -3 38 -30 13 -14 -13 -18 -13 -18 -2 0 23 36
153 48 175 6 12 9 24 6 27 -3 3 11 75 32 161 30 124 36 160 27 179 -33 72
-208 76 -257 6 -13 -19 -15 -39 -10 -109 4 -47 3 -82 -1 -78 -8 8 -356 751
-352 754 1 1 135 41 297 89 1649 486 4029 1257 4725 1530 203 79 286 117 304
138 12 15 6 28 -46 109 -515 801 -923 1936 -1178 3283 -54 287 -142 861 -133
870 2 2 551 -1198 1221 -2667 942 -2065 1217 -2677 1215 -2701 -3 -28 -7 -21
-40 58 l-38 90 6 -80 c3 -44 7 -90 10 -103 2 -12 2 -22 0 -22 -3 0 -24 25 -47
55 -23 31 -43 54 -45 53 -1 -2 4 -34 12 -72 8 -38 13 -71 11 -73 -3 -2 -21 21
-42 52 -21 30 -40 55 -42 55 -2 0 9 -30 52 -138 l18 -43 196 6 c161 6 198 10
209 23 19 24 15 44 -7 37 -17 -5 -19 -2 -14 37 l6 43 -33 -30 -32 -30 26 52
c14 29 26 55 26 58 0 3 -18 -4 -41 -15 -38 -20 -40 -20 -35 -3 26 85 106 444
104 467 -5 49 -47 71 -133 71 -59 0 -79 -4 -102 -21 l-28 -21 0 -172 c1 -94
-2 -167 -6 -163 -3 4 -525 1145 -1159 2537 -635 1392 -1181 2591 -1215 2666
l-62 135 143 312 c135 297 141 313 122 323 -11 6 -21 9 -22 7 -1 -2 -60 -130
-131 -286 -71 -156 -132 -285 -136 -287 -3 -3 -73 142 -154 320 -139 307 -165
352 -181 312z"/>
</g>
</svg>
